<svg width="32" height="32" viewBox="0 0 32 32" fill="none" xmlns="http://www.w3.org/2000/svg">
<g clip-path="url(#clip0_1_6)">
<path d="M8.98438 22.2969L11.6094 22.5781H12.7344C14.1823 22.5781 15.2292 22.2812 15.875 21.6875C16.5312 21.0938 16.8594 20.0938 16.8594 18.6875V6.07812C16.8594 5.67188 17 5.32292 17.2812 5.03125C17.5729 4.73958 17.9219 4.59375 18.3281 4.59375H21.2344C21.6615 4.59375 22.0208 4.73958 22.3125 5.03125C22.6042 5.32292 22.75 5.67188 22.75 6.07812V18.6406C22.75 21.3073 21.8646 23.3698 20.0938 24.8281C18.3229 26.276 15.9219 27 12.8906 27H8.46875C8.0625 27 7.71354 26.8594 7.42188 26.5781C7.14062 26.2865 7 25.9375 7 25.5312V23.7656C7 23.3594 7.13542 23.0156 7.40625 22.7344C7.6875 22.4427 8.04167 22.2969 8.46875 22.2969H8.98438Z" fill="#0086FF"/>
</g>
<defs>
<clipPath id="clip0_1_6">
<rect width="32" height="32" fill="white"/>
</clipPath>
</defs>
</svg>
