<svg width="101" height="33" viewBox="0 0 101 33" fill="none" xmlns="http://www.w3.org/2000/svg">
<g clip-path="url(#clip0_1_5)">
<path d="M35.696 18.248C35.696 18.98 35.603 19.646 35.417 20.246C35.237 20.846 34.961 21.362 34.589 21.794C34.223 22.22 33.761 22.553 33.203 22.793C32.645 23.027 31.988 23.144 31.232 23.144C30.89 23.144 30.551 23.126 30.215 23.09C29.885 23.054 29.54 22.994 29.18 22.91L29.342 21.137C29.36 20.981 29.423 20.855 29.531 20.759C29.639 20.663 29.792 20.615 29.99 20.615C30.092 20.615 30.218 20.633 30.368 20.669C30.518 20.699 30.698 20.714 30.908 20.714C31.202 20.714 31.457 20.675 31.673 20.597C31.895 20.513 32.078 20.378 32.222 20.192C32.366 20 32.474 19.751 32.546 19.445C32.618 19.139 32.654 18.761 32.654 18.311V9.887H35.696V18.248ZM41.8232 13.523C42.5312 13.523 43.1762 13.634 43.7582 13.856C44.3402 14.078 44.8382 14.396 45.2522 14.81C45.6722 15.224 45.9962 15.728 46.2242 16.322C46.4582 16.91 46.5752 17.573 46.5752 18.311C46.5752 19.055 46.4582 19.727 46.2242 20.327C45.9962 20.921 45.6722 21.428 45.2522 21.848C44.8382 22.262 44.3402 22.583 43.7582 22.811C43.1762 23.033 42.5312 23.144 41.8232 23.144C41.1092 23.144 40.4582 23.033 39.8702 22.811C39.2882 22.583 38.7842 22.262 38.3582 21.848C37.9382 21.428 37.6112 20.921 37.3772 20.327C37.1492 19.727 37.0352 19.055 37.0352 18.311C37.0352 17.573 37.1492 16.91 37.3772 16.322C37.6112 15.728 37.9382 15.224 38.3582 14.81C38.7842 14.396 39.2882 14.078 39.8702 13.856C40.4582 13.634 41.1092 13.523 41.8232 13.523ZM41.8232 21.074C42.4652 21.074 42.9362 20.849 43.2362 20.399C43.5422 19.943 43.6952 19.253 43.6952 18.329C43.6952 17.405 43.5422 16.718 43.2362 16.268C42.9362 15.818 42.4652 15.593 41.8232 15.593C41.1632 15.593 40.6802 15.818 40.3742 16.268C40.0682 16.718 39.9152 17.405 39.9152 18.329C39.9152 19.253 40.0682 19.943 40.3742 20.399C40.6802 20.849 41.1632 21.074 41.8232 21.074ZM50.7702 20.462C50.9802 20.69 51.2082 20.852 51.4542 20.948C51.7002 21.044 51.9492 21.092 52.2012 21.092C52.4652 21.092 52.7082 21.044 52.9302 20.948C53.1522 20.846 53.3412 20.684 53.4972 20.462C53.6592 20.234 53.7852 19.937 53.8752 19.571C53.9652 19.199 54.0102 18.743 54.0102 18.203C54.0102 17.735 53.9742 17.339 53.9022 17.015C53.8362 16.685 53.7342 16.418 53.5962 16.214C53.4642 16.004 53.2962 15.854 53.0922 15.764C52.8942 15.668 52.6662 15.62 52.4082 15.62C52.0662 15.62 51.7692 15.695 51.5172 15.845C51.2652 15.995 51.0162 16.214 50.7702 16.502V20.462ZM50.7702 14.657C51.1302 14.315 51.5232 14.042 51.9492 13.838C52.3812 13.628 52.8612 13.523 53.3892 13.523C53.9172 13.523 54.3972 13.631 54.8292 13.847C55.2612 14.063 55.6302 14.372 55.9362 14.774C56.2422 15.17 56.4762 15.65 56.6382 16.214C56.8062 16.778 56.8902 17.408 56.8902 18.104C56.8902 18.86 56.7942 19.547 56.6022 20.165C56.4102 20.783 56.1372 21.314 55.7832 21.758C55.4352 22.196 55.0182 22.538 54.5322 22.784C54.0462 23.024 53.5092 23.144 52.9212 23.144C52.6392 23.144 52.3872 23.117 52.1652 23.063C51.9432 23.009 51.7392 22.934 51.5532 22.838C51.3672 22.736 51.1962 22.616 51.0402 22.478C50.8902 22.34 50.7432 22.19 50.5992 22.028L50.5002 22.496C50.4522 22.688 50.3742 22.82 50.2662 22.892C50.1582 22.964 50.0142 23 49.8342 23H47.9802V9.527H50.7702V14.657ZM61.1061 14.486C61.4421 14.198 61.8051 13.967 62.1951 13.793C62.5911 13.613 63.0621 13.523 63.6081 13.523C64.1181 13.523 64.5681 13.613 64.9581 13.793C65.3541 13.967 65.6871 14.213 65.9571 14.531C66.2271 14.843 66.4311 15.218 66.5691 15.656C66.7071 16.088 66.7761 16.559 66.7761 17.069V23H63.9861V17.069C63.9861 16.613 63.8811 16.259 63.6711 16.007C63.4611 15.749 63.1521 15.62 62.7441 15.62C62.4381 15.62 62.1501 15.686 61.8801 15.818C61.6161 15.944 61.3581 16.118 61.1061 16.34V23H58.3161V9.527H61.1061V14.486ZM76.9517 13.667V23H75.2237C74.8757 23 74.6477 22.844 74.5397 22.532L74.3777 21.992C74.1977 22.166 74.0117 22.325 73.8197 22.469C73.6277 22.607 73.4207 22.727 73.1987 22.829C72.9827 22.925 72.7457 23 72.4877 23.054C72.2357 23.114 71.9597 23.144 71.6597 23.144C71.1497 23.144 70.6967 23.057 70.3007 22.883C69.9107 22.703 69.5807 22.454 69.3107 22.136C69.0407 21.818 68.8367 21.443 68.6987 21.011C68.5607 20.579 68.4917 20.105 68.4917 19.589V13.667H71.2817V19.589C71.2817 20.051 71.3867 20.408 71.5967 20.66C71.8067 20.912 72.1157 21.038 72.5237 21.038C72.8297 21.038 73.1147 20.975 73.3787 20.849C73.6487 20.717 73.9097 20.54 74.1617 20.318V13.667H76.9517ZM81.4213 14.675C81.6013 14.507 81.7873 14.351 81.9793 14.207C82.1713 14.063 82.3753 13.943 82.5913 13.847C82.8133 13.745 83.0503 13.667 83.3023 13.613C83.5603 13.553 83.8393 13.523 84.1393 13.523C84.6493 13.523 85.0993 13.613 85.4893 13.793C85.8853 13.967 86.2183 14.213 86.4883 14.531C86.7583 14.843 86.9623 15.218 87.1003 15.656C87.2383 16.088 87.3073 16.559 87.3073 17.069V23H84.5173V17.069C84.5173 16.613 84.4123 16.259 84.2023 16.007C83.9923 15.749 83.6833 15.62 83.2753 15.62C82.9693 15.62 82.6813 15.686 82.4113 15.818C82.1473 15.944 81.8893 16.118 81.6373 16.34V23H78.8473V13.667H80.5753C80.9233 13.667 81.1513 13.823 81.2593 14.135L81.4213 14.675ZM92.3289 23.144C91.8849 23.144 91.4919 23.081 91.1499 22.955C90.8139 22.823 90.5289 22.64 90.2949 22.406C90.0669 22.166 89.8929 21.878 89.7729 21.542C89.6529 21.206 89.5929 20.831 89.5929 20.417V15.593H88.8009C88.6569 15.593 88.5339 15.548 88.4319 15.458C88.3299 15.362 88.2789 15.224 88.2789 15.044V13.955L89.7639 13.667L90.3129 11.39C90.3849 11.102 90.5889 10.958 90.9249 10.958H92.3829V13.685H94.6959V15.593H92.3829V20.228C92.3829 20.444 92.4339 20.624 92.5359 20.768C92.6439 20.906 92.7969 20.975 92.9949 20.975C93.0969 20.975 93.1809 20.966 93.2469 20.948C93.3189 20.924 93.3789 20.9 93.4269 20.876C93.4809 20.846 93.5289 20.822 93.5709 20.804C93.6189 20.78 93.6729 20.768 93.7329 20.768C93.8169 20.768 93.8829 20.789 93.9309 20.831C93.9849 20.867 94.0389 20.927 94.0929 21.011L94.9389 22.334C94.5789 22.604 94.1739 22.808 93.7239 22.946C93.2739 23.078 92.8089 23.144 92.3289 23.144Z" fill="#3A3A3A"/>
<path d="M6.15105 23.2969L8.77605 23.5781H9.90105C11.349 23.5781 12.3958 23.2812 13.0417 22.6875C13.6979 22.0938 14.026 21.0938 14.026 19.6875V7.07812C14.026 6.67188 14.1667 6.32292 14.4479 6.03125C14.7396 5.73958 15.0885 5.59375 15.4948 5.59375H18.401C18.8281 5.59375 19.1875 5.73958 19.4792 6.03125C19.7708 6.32292 19.9167 6.67188 19.9167 7.07812V19.6406C19.9167 22.3073 19.0313 24.3698 17.2604 25.8281C15.4896 27.276 13.0885 28 10.0573 28H5.63542C5.22917 28 4.88021 27.8594 4.58855 27.5781C4.3073 27.2865 4.16667 26.9375 4.16667 26.5312V24.7656C4.16667 24.3594 4.30209 24.0156 4.57292 23.7344C4.85417 23.4427 5.20834 23.2969 5.63542 23.2969H6.15105Z" fill="#0086FF"/>
</g>
<defs>
<clipPath id="clip0_1_5">
<rect width="101" height="33" fill="white"/>
</clipPath>
</defs>
</svg>
