<svg width="221" height="72" viewBox="0 0 221 72" fill="none" xmlns="http://www.w3.org/2000/svg">
<g clip-path="url(#clip0_3_2)">
<path d="M75.7188 38.5261C75.7188 40.0788 75.5215 41.4915 75.127 42.7642C74.7452 44.037 74.1597 45.1315 73.3706 46.0479C72.5942 46.9515 71.6142 47.6579 70.4306 48.167C69.247 48.6633 67.8533 48.9115 66.2497 48.9115C65.5242 48.9115 64.8052 48.8733 64.0924 48.797C63.3924 48.7206 62.6606 48.5933 61.897 48.4152L62.2406 44.6542C62.2788 44.3233 62.4124 44.0561 62.6415 43.8524C62.8706 43.6488 63.1952 43.547 63.6152 43.547C63.8315 43.547 64.0988 43.5852 64.417 43.6615C64.7352 43.7252 65.117 43.757 65.5624 43.757C66.1861 43.757 66.727 43.6742 67.1852 43.5088C67.6561 43.3306 68.0442 43.0442 68.3497 42.6497C68.6552 42.2424 68.8842 41.7142 69.037 41.0652C69.1897 40.4161 69.2661 39.6142 69.2661 38.6597V20.7906H75.7188V38.5261ZM88.7158 28.5033C90.2176 28.5033 91.5858 28.7388 92.8204 29.2097C94.0549 29.6806 95.1113 30.3552 95.9895 31.2333C96.8804 32.1115 97.5676 33.1806 98.0513 34.4406C98.5476 35.6879 98.7958 37.0942 98.7958 38.6597C98.7958 40.2379 98.5476 41.6633 98.0513 42.9361C97.5676 44.1961 96.8804 45.2715 95.9895 46.1624C95.1113 47.0406 94.0549 47.7215 92.8204 48.2052C91.5858 48.6761 90.2176 48.9115 88.7158 48.9115C87.2013 48.9115 85.8204 48.6761 84.5731 48.2052C83.3385 47.7215 82.2695 47.0406 81.3658 46.1624C80.4749 45.2715 79.7813 44.1961 79.2849 42.9361C78.8013 41.6633 78.5595 40.2379 78.5595 38.6597C78.5595 37.0942 78.8013 35.6879 79.2849 34.4406C79.7813 33.1806 80.4749 32.1115 81.3658 31.2333C82.2695 30.3552 83.3385 29.6806 84.5731 29.2097C85.8204 28.7388 87.2013 28.5033 88.7158 28.5033ZM88.7158 44.5206C90.0776 44.5206 91.0767 44.0433 91.7131 43.0888C92.3622 42.1215 92.6867 40.6579 92.6867 38.6979C92.6867 36.7379 92.3622 35.2806 91.7131 34.3261C91.0767 33.3715 90.0776 32.8942 88.7158 32.8942C87.3158 32.8942 86.2913 33.3715 85.6422 34.3261C84.9931 35.2806 84.6685 36.7379 84.6685 38.6979C84.6685 40.6579 84.9931 42.1215 85.6422 43.0888C86.2913 44.0433 87.3158 44.5206 88.7158 44.5206ZM107.694 43.2224C108.14 43.7061 108.623 44.0497 109.145 44.2533C109.667 44.457 110.195 44.5588 110.73 44.5588C111.29 44.5588 111.805 44.457 112.276 44.2533C112.747 44.037 113.148 43.6933 113.479 43.2224C113.822 42.7388 114.09 42.1088 114.281 41.3324C114.472 40.5433 114.567 39.5761 114.567 38.4306C114.567 37.4379 114.491 36.5979 114.338 35.9106C114.198 35.2106 113.982 34.6442 113.689 34.2115C113.409 33.7661 113.052 33.4479 112.62 33.257C112.2 33.0533 111.716 32.9515 111.169 32.9515C110.443 32.9515 109.813 33.1106 109.279 33.4288C108.744 33.747 108.216 34.2115 107.694 34.8224V43.2224ZM107.694 30.9088C108.458 30.1833 109.292 29.6042 110.195 29.1715C111.112 28.7261 112.13 28.5033 113.25 28.5033C114.37 28.5033 115.388 28.7324 116.304 29.1906C117.221 29.6488 118.003 30.3042 118.652 31.157C119.302 31.997 119.798 33.0152 120.142 34.2115C120.498 35.4079 120.676 36.7442 120.676 38.2206C120.676 39.8242 120.472 41.2815 120.065 42.5924C119.658 43.9033 119.079 45.0297 118.328 45.9715C117.59 46.9006 116.705 47.6261 115.674 48.1479C114.643 48.657 113.504 48.9115 112.257 48.9115C111.659 48.9115 111.124 48.8542 110.653 48.7397C110.182 48.6252 109.75 48.4661 109.355 48.2624C108.961 48.0461 108.598 47.7915 108.267 47.4988C107.949 47.2061 107.637 46.8879 107.332 46.5442L107.122 47.537C107.02 47.9442 106.854 48.2242 106.625 48.377C106.396 48.5297 106.091 48.6061 105.709 48.6061H101.776V20.027H107.694V30.9088ZM129.619 30.5461C130.332 29.9352 131.102 29.4452 131.929 29.0761C132.769 28.6942 133.768 28.5033 134.926 28.5033C136.008 28.5033 136.963 28.6942 137.79 29.0761C138.63 29.4452 139.336 29.967 139.909 30.6415C140.482 31.3033 140.914 32.0988 141.207 33.0279C141.5 33.9442 141.646 34.9433 141.646 36.0252V48.6061H135.728V36.0252C135.728 35.0579 135.505 34.307 135.06 33.7724C134.614 33.2252 133.959 32.9515 133.094 32.9515C132.444 32.9515 131.834 33.0915 131.261 33.3715C130.701 33.6388 130.154 34.0079 129.619 34.4788V48.6061H123.701V20.027H129.619V30.5461ZM163.231 28.8088V48.6061H159.565C158.827 48.6061 158.344 48.2752 158.115 47.6133L157.771 46.4679C157.389 46.837 156.995 47.1742 156.587 47.4797C156.18 47.7724 155.741 48.027 155.27 48.2433C154.812 48.447 154.309 48.6061 153.762 48.7206C153.227 48.8479 152.642 48.9115 152.005 48.9115C150.924 48.9115 149.963 48.727 149.123 48.3579C148.295 47.9761 147.595 47.4479 147.023 46.7733C146.45 46.0988 146.017 45.3033 145.725 44.387C145.432 43.4706 145.285 42.4652 145.285 41.3706V28.8088H151.204V41.3706C151.204 42.3506 151.426 43.1079 151.872 43.6424C152.317 44.177 152.973 44.4442 153.838 44.4442C154.487 44.4442 155.092 44.3106 155.652 44.0433C156.225 43.7633 156.778 43.3879 157.313 42.917V28.8088H163.231ZM172.712 30.947C173.094 30.5906 173.488 30.2597 173.896 29.9542C174.303 29.6488 174.736 29.3942 175.194 29.1906C175.665 28.9742 176.167 28.8088 176.702 28.6942C177.249 28.567 177.841 28.5033 178.477 28.5033C179.559 28.5033 180.514 28.6942 181.341 29.0761C182.181 29.4452 182.887 29.967 183.46 30.6415C184.033 31.3033 184.466 32.0988 184.758 33.0279C185.051 33.9442 185.197 34.9433 185.197 36.0252V48.6061H179.279V36.0252C179.279 35.0579 179.056 34.307 178.611 33.7724C178.166 33.2252 177.51 32.9515 176.645 32.9515C175.996 32.9515 175.385 33.0915 174.812 33.3715C174.252 33.6388 173.705 34.0079 173.17 34.4788V48.6061H167.252V28.8088H170.917C171.656 28.8088 172.139 29.1397 172.368 29.8015L172.712 30.947ZM195.849 48.9115C194.907 48.9115 194.074 48.7779 193.348 48.5106C192.636 48.2306 192.031 47.8424 191.535 47.3461C191.051 46.837 190.682 46.2261 190.427 45.5133C190.173 44.8006 190.046 44.0052 190.046 43.127V32.8942H188.366C188.06 32.8942 187.799 32.7988 187.583 32.6079C187.366 32.4042 187.258 32.1115 187.258 31.7297V29.4197L190.408 28.8088L191.573 23.9788C191.726 23.3679 192.158 23.0624 192.871 23.0624H195.964V28.847H200.87V32.8942H195.964V42.7261C195.964 43.1842 196.072 43.5661 196.288 43.8715C196.517 44.1642 196.842 44.3106 197.262 44.3106C197.478 44.3106 197.656 44.2915 197.796 44.2533C197.949 44.2024 198.076 44.1515 198.178 44.1006C198.293 44.037 198.395 43.9861 198.484 43.9479C198.586 43.897 198.7 43.8715 198.827 43.8715C199.006 43.8715 199.146 43.9161 199.247 44.0052C199.362 44.0815 199.476 44.2088 199.591 44.387L201.386 47.1933C200.622 47.7661 199.763 48.1988 198.808 48.4915C197.854 48.7715 196.867 48.9115 195.849 48.9115Z" fill="#3A3A3A"/>
<path d="M13.0477 48.5388L18.6159 49.1354H21.0022C24.0736 49.1354 26.2942 48.5057 27.6642 47.2462C29.0562 45.9867 29.7522 43.8655 29.7522 40.8826V14.1354C29.7522 13.2737 30.0505 12.5335 30.6471 11.9148C31.2658 11.2961 32.006 10.9867 32.8677 10.9867H39.0325C39.9385 10.9867 40.7008 11.2961 41.3195 11.9148C41.9381 12.5335 42.2475 13.2737 42.2475 14.1354V40.7831C42.2475 46.4397 40.3693 50.8147 36.613 53.9081C32.8567 56.9795 27.7636 58.5152 21.3337 58.5152H11.9539C11.0922 58.5152 10.352 58.2169 9.73328 57.6203C9.13669 57.0016 8.83839 56.2614 8.83839 55.3996V51.6544C8.83839 50.7926 9.12564 50.0634 9.70014 49.4669C10.2967 48.8482 11.048 48.5388 11.9539 48.5388H13.0477Z" fill="#0086FF"/>
</g>
<defs>
<clipPath id="clip0_3_2">
<rect width="220.364" height="72" fill="white"/>
</clipPath>
</defs>
</svg>
